<?xml version="1.0" encoding="UTF-8"?>
<!DOCTYPE svg PUBLIC "-//W3C//DTD SVG 1.1//EN" "http://www.w3.org/Graphics/SVG/1.1/DTD/svg11.dtd">
<!-- Creator: CorelDRAW X6 -->
<svg xmlns="http://www.w3.org/2000/svg" xml:space="preserve" width="60"  version="1.1" style="shape-rendering:geometricPrecision; text-rendering:geometricPrecision; image-rendering:optimizeQuality; fill-rule:evenodd; clip-rule:evenodd"
viewBox="0 0 3931 3931"
 xmlns:xlink="http://www.w3.org/1999/xlink">
 <defs>
  <style type="text/css">
   
    .fil2 {fill:#20C0DF;fill-rule:nonzero}
    .fil0 {
      fill:#42426E;fill-rule:nonzero;
      animation: black 5s alternate infinite;
      }
    .fil1 {fill:#FEFEFE;fill-rule:nonzero}
  
       
      @keyframes black {            

            to {
                
                fill:#4CAF52;

            }
        }
  </style>
 </defs>
 <g id="Layer_x0020_1">
  <metadata id="CorelCorpID_0Corel-Layer"/>
  <polygon class="fil0" points="0,3931 3937,3931 3937,-6 0,-6 "/>
  <path class="fil1" d="M1275 925c-1,-3 -2,-6 -3,-10 -1,-4 -2,-8 -3,-13l-1 0c-1,5 -2,10 -3,13 -1,4 -2,7 -3,10l-55 150 124 0 -55 -150zm103 279l-37 -100 -145 0 -36 100 -35 0 129 -338 32 0 128 338 -35 0z"/>
  <path class="fil1" d="M1464 1155c6,4 12,8 19,11 7,3 14,6 21,9 7,2 14,4 22,5 7,1 14,2 21,2 26,0 45,-5 58,-15 13,-10 19,-24 19,-43 0,-9 -1,-17 -4,-23 -3,-7 -8,-13 -14,-19 -6,-6 -14,-12 -24,-17 -10,-6 -21,-12 -34,-19 -14,-8 -27,-15 -37,-22 -10,-7 -19,-14 -25,-21 -7,-7 -11,-15 -14,-24 -3,-8 -5,-18 -5,-29 0,-14 3,-26 9,-37 6,-11 14,-20 24,-28 10,-8 22,-13 35,-18 13,-4 27,-6 43,-6 27,0 49,4 67,11l0 35c-20,-11 -43,-17 -70,-17 -10,0 -20,1 -28,4 -9,2 -17,6 -23,11 -7,5 -12,11 -16,18 -4,7 -6,15 -6,24 0,9 1,16 4,23 3,6 7,12 13,18 6,6 13,11 23,17 9,6 21,12 34,19 14,8 26,15 37,22 11,7 19,15 26,22 7,8 12,16 16,25 3,9 5,18 5,29 0,15 -3,28 -8,39 -6,11 -13,21 -23,28 -10,7 -22,13 -35,17 -14,4 -29,6 -45,6 -5,0 -12,0 -19,-1 -7,-1 -15,-2 -22,-4 -8,-2 -15,-4 -22,-6 -7,-2 -12,-5 -17,-7l0 -37z"/>
  <path class="fil1" d="M1767 895l0 149 45 0c29,0 51,-7 66,-20 15,-14 23,-33 23,-57 0,-48 -28,-71 -83,-71l-50 0zm0 178l0 132 -31 0 0 -338 87 0c18,0 33,2 47,7 14,4 25,11 35,19 9,8 17,19 21,31 5,12 7,26 7,42 0,16 -3,30 -8,44 -6,13 -13,25 -24,34 -10,10 -23,17 -38,23 -15,5 -32,8 -50,8l-47 0z"/>
  <path class="fil1" d="M1976 1209c-6,0 -12,-2 -16,-7 -4,-4 -7,-10 -7,-16 0,-6 2,-12 6,-16 4,-4 10,-7 16,-7 3,0 6,1 9,2 3,1 5,3 7,5 2,2 4,4 5,7 1,3 2,6 2,9 0,3 -1,6 -2,9 -1,3 -3,5 -5,7 -2,2 -4,4 -7,5 -3,1 -6,2 -9,2z"/>
  <path class="fil1" d="M2312 1204l-188 -271c-2,-3 -5,-7 -7,-11 -2,-4 -4,-7 -6,-11l-1 0c0,3 1,7 1,12 0,5 0,11 0,19l0 262 -31 0 0 -338 35 0 185 268c3,4 5,8 8,12 2,4 4,7 6,10l1 0c-1,-5 -1,-11 -1,-17 0,-6 0,-14 0,-21l0 -251 32 0 0 338 -33 0z"/>
  <polygon class="fil1" points="2440,1204 2440,866 2605,866 2605,895 2471,895 2471,1019 2595,1019 2595,1047 2471,1047 2471,1176 2612,1176 2612,1204 "/>
  <polygon class="fil1" points="2783,895 2783,1204 2751,1204 2751,895 2654,895 2654,866 2880,866 2880,895 "/>
  <path class="fil1" d="M2481 1961c-21,-16 -49,-24 -83,-24 -24,0 -46,5 -64,14 -19,9 -35,22 -49,38 -14,16 -26,34 -36,55 -10,21 -18,43 -24,65 -6,22 -10,45 -13,68 -3,23 -4,45 -4,65l0 359 -91 0 0 -735 91 0 0 157 3 0c9,-27 20,-51 33,-72 13,-21 28,-39 46,-54 17,-15 36,-26 56,-33 20,-8 42,-11 64,-11 15,0 28,1 40,3 12,2 22,5 32,9l0 96z"/>
  <path class="fil1" d="M3089 2171c-1,-76 -20,-136 -55,-178 -35,-42 -83,-63 -146,-63 -31,0 -60,5 -87,16 -27,11 -50,27 -70,48 -20,21 -37,46 -50,76 -13,30 -22,63 -28,101l434 0zm-436 80c0,45 6,85 18,121 11,36 28,66 49,91 22,25 48,44 79,57 31,13 66,20 104,20 83,0 161,-29 235,-87l0 90c-70,50 -155,75 -255,75 -49,0 -94,-9 -134,-26 -40,-17 -74,-42 -102,-75 -28,-33 -50,-73 -65,-121 -15,-48 -23,-102 -23,-164 0,-55 8,-106 25,-153 17,-47 40,-87 70,-122 30,-34 65,-61 105,-80 41,-19 85,-29 133,-29 48,0 89,8 126,25 36,17 67,40 91,71 25,31 44,68 56,112 13,44 19,93 19,148l0 46 -531 0z"/>
  <path class="fil1" d="M1074 2718c-138,-138 -205,-321 -201,-503 -4,-189 63,-362 201,-501 271,-271 711,-270 982,2l58 -61c-152,-152 -353,-229 -553,-229 -200,0 -399,75 -552,227 -154,154 -230,373 -228,562 -2,205 74,411 228,565 152,152 352,228 552,228 200,0 401,-77 553,-229l-58 -60c-271,271 -711,270 -982,-1z"/>
  <path class="fil2" d="M1554 2496c-39,0 -74,-7 -105,-20 -31,-13 -57,-31 -79,-55 -22,-24 -38,-52 -50,-85 -12,-33 -18,-70 -18,-110 0,-44 6,-83 18,-117 12,-34 30,-64 52,-88 23,-24 50,-42 82,-55 32,-13 68,-19 107,-19 38,0 72,6 102,19 30,12 56,30 77,54 21,24 37,52 49,86 11,34 17,72 17,115 0,41 -6,78 -18,112 -12,34 -29,63 -50,87 -22,24 -48,43 -80,56 -31,13 -67,20 -106,20z"/>
 </g>
</svg>
